<mxfile host="app.diagrams.net" agent="Mozilla/5.0 (Windows NT 10.0; Win64; x64) AppleWebKit/537.36 (KHTML, like Gecko) Chrome/129.0.0.0 Safari/537.36" version="24.7.17">
  <diagram name="Page-1" id="siX0cTwjrGp8zKuslVbq">
    <mxGraphModel dx="1400" dy="575" grid="1" gridSize="10" guides="1" tooltips="1" connect="1" arrows="1" fold="1" page="1" pageScale="1" pageWidth="827" pageHeight="1169" math="0" shadow="0">
      <root>
        <mxCell id="0" />
        <mxCell id="1" parent="0" />
        <mxCell id="rCkbryS9UeWEup9spOi4-1" value="User Input&lt;div&gt;(Query and Path)&lt;/div&gt;" style="rounded=1;whiteSpace=wrap;html=1;" vertex="1" parent="1">
          <mxGeometry x="110" y="10" width="120" height="60" as="geometry" />
        </mxCell>
        <mxCell id="rCkbryS9UeWEup9spOi4-2" value="4. Generate Inverted Index" style="rounded=1;whiteSpace=wrap;html=1;" vertex="1" parent="1">
          <mxGeometry x="380" y="220" width="120" height="60" as="geometry" />
        </mxCell>
        <mxCell id="rCkbryS9UeWEup9spOi4-3" value="2. Preprocess Documents" style="rounded=1;whiteSpace=wrap;html=1;" vertex="1" parent="1">
          <mxGeometry x="380" y="110" width="120" height="60" as="geometry" />
        </mxCell>
        <mxCell id="rCkbryS9UeWEup9spOi4-4" value="Document Storage (Files)" style="rounded=1;whiteSpace=wrap;html=1;" vertex="1" parent="1">
          <mxGeometry x="380" y="10" width="120" height="60" as="geometry" />
        </mxCell>
        <mxCell id="rCkbryS9UeWEup9spOi4-5" value="&lt;span class=&quot;hljs-number&quot;&gt;7.&lt;/span&gt; Display Ranked documents &lt;span class=&quot;hljs-keyword&quot;&gt;to&lt;/span&gt; &lt;span class=&quot;hljs-keyword&quot;&gt;User&lt;/span&gt;" style="rounded=1;whiteSpace=wrap;html=1;" vertex="1" parent="1">
          <mxGeometry x="110" y="525" width="120" height="60" as="geometry" />
        </mxCell>
        <mxCell id="rCkbryS9UeWEup9spOi4-6" value="&lt;span class=&quot;hljs-number&quot;&gt;6.&lt;/span&gt; Rank Documents b&lt;span class=&quot;hljs-keyword&quot;&gt;y&lt;/span&gt; TF&lt;span class=&quot;hljs-operator&quot;&gt;-&lt;/span&gt;IDF Score" style="rounded=1;whiteSpace=wrap;html=1;" vertex="1" parent="1">
          <mxGeometry x="110" y="420" width="120" height="60" as="geometry" />
        </mxCell>
        <mxCell id="rCkbryS9UeWEup9spOi4-7" value="&lt;span class=&quot;hljs-number&quot;&gt;5.&lt;/span&gt; Calculate TF&lt;span class=&quot;hljs-operator&quot;&gt;-&lt;/span&gt;IDF for Query" style="rounded=1;whiteSpace=wrap;html=1;" vertex="1" parent="1">
          <mxGeometry x="110" y="320" width="120" height="60" as="geometry" />
        </mxCell>
        <mxCell id="rCkbryS9UeWEup9spOi4-8" value="&lt;span class=&quot;hljs-number&quot;&gt;3.&lt;/span&gt; &lt;span class=&quot;hljs-keyword&quot;&gt;Create&lt;/span&gt; Inverted Index" style="rounded=1;whiteSpace=wrap;html=1;" vertex="1" parent="1">
          <mxGeometry x="110" y="220" width="120" height="60" as="geometry" />
        </mxCell>
        <mxCell id="rCkbryS9UeWEup9spOi4-9" value="1. Search and Preprocess Query" style="rounded=1;whiteSpace=wrap;html=1;" vertex="1" parent="1">
          <mxGeometry x="110" y="110" width="120" height="60" as="geometry" />
        </mxCell>
        <mxCell id="rCkbryS9UeWEup9spOi4-10" value="" style="endArrow=classic;html=1;rounded=0;entryX=0;entryY=0.5;entryDx=0;entryDy=0;" edge="1" parent="1" target="rCkbryS9UeWEup9spOi4-4">
          <mxGeometry relative="1" as="geometry">
            <mxPoint x="230" y="39.79" as="sourcePoint" />
            <mxPoint x="330" y="39.79" as="targetPoint" />
          </mxGeometry>
        </mxCell>
        <mxCell id="rCkbryS9UeWEup9spOi4-11" value="Path" style="edgeLabel;resizable=0;html=1;;align=center;verticalAlign=middle;" connectable="0" vertex="1" parent="rCkbryS9UeWEup9spOi4-10">
          <mxGeometry relative="1" as="geometry" />
        </mxCell>
        <mxCell id="rCkbryS9UeWEup9spOi4-12" value="" style="endArrow=classic;html=1;rounded=0;" edge="1" parent="1">
          <mxGeometry relative="1" as="geometry">
            <mxPoint x="169.79000000000002" y="70" as="sourcePoint" />
            <mxPoint x="169.79000000000002" y="110" as="targetPoint" />
          </mxGeometry>
        </mxCell>
        <mxCell id="rCkbryS9UeWEup9spOi4-13" value="Query" style="edgeLabel;resizable=0;html=1;;align=center;verticalAlign=middle;" connectable="0" vertex="1" parent="rCkbryS9UeWEup9spOi4-12">
          <mxGeometry relative="1" as="geometry" />
        </mxCell>
        <mxCell id="rCkbryS9UeWEup9spOi4-14" value="" style="endArrow=classic;startArrow=classic;html=1;rounded=0;entryX=0;entryY=0.5;entryDx=0;entryDy=0;" edge="1" parent="1" target="rCkbryS9UeWEup9spOi4-3">
          <mxGeometry relative="1" as="geometry">
            <mxPoint x="230" y="139.79" as="sourcePoint" />
            <mxPoint x="330" y="139.79" as="targetPoint" />
          </mxGeometry>
        </mxCell>
        <mxCell id="rCkbryS9UeWEup9spOi4-15" value="Query" style="edgeLabel;resizable=0;html=1;;align=center;verticalAlign=middle;" connectable="0" vertex="1" parent="rCkbryS9UeWEup9spOi4-14">
          <mxGeometry relative="1" as="geometry" />
        </mxCell>
        <mxCell id="rCkbryS9UeWEup9spOi4-17" value="" style="endArrow=classic;html=1;rounded=0;entryX=0;entryY=0.5;entryDx=0;entryDy=0;" edge="1" parent="1">
          <mxGeometry relative="1" as="geometry">
            <mxPoint x="380" y="260.21" as="sourcePoint" />
            <mxPoint x="230" y="260" as="targetPoint" />
          </mxGeometry>
        </mxCell>
        <mxCell id="rCkbryS9UeWEup9spOi4-18" value="Document" style="edgeLabel;resizable=0;html=1;;align=center;verticalAlign=middle;" connectable="0" vertex="1" parent="rCkbryS9UeWEup9spOi4-17">
          <mxGeometry relative="1" as="geometry" />
        </mxCell>
        <mxCell id="rCkbryS9UeWEup9spOi4-19" value="" style="endArrow=classic;html=1;rounded=0;" edge="1" parent="1">
          <mxGeometry width="50" height="50" relative="1" as="geometry">
            <mxPoint x="169.79" y="170" as="sourcePoint" />
            <mxPoint x="169.79" y="220" as="targetPoint" />
          </mxGeometry>
        </mxCell>
        <mxCell id="rCkbryS9UeWEup9spOi4-20" value="" style="endArrow=classic;html=1;rounded=0;" edge="1" parent="1">
          <mxGeometry width="50" height="50" relative="1" as="geometry">
            <mxPoint x="169.79" y="280" as="sourcePoint" />
            <mxPoint x="170" y="320" as="targetPoint" />
          </mxGeometry>
        </mxCell>
        <mxCell id="rCkbryS9UeWEup9spOi4-21" value="" style="endArrow=classic;html=1;rounded=0;" edge="1" parent="1">
          <mxGeometry width="50" height="50" relative="1" as="geometry">
            <mxPoint x="170" y="380" as="sourcePoint" />
            <mxPoint x="169.79" y="420" as="targetPoint" />
          </mxGeometry>
        </mxCell>
        <mxCell id="rCkbryS9UeWEup9spOi4-22" value="" style="endArrow=classic;html=1;rounded=0;exitX=0.5;exitY=1;exitDx=0;exitDy=0;" edge="1" parent="1" source="rCkbryS9UeWEup9spOi4-6">
          <mxGeometry width="50" height="50" relative="1" as="geometry">
            <mxPoint x="170.21" y="485" as="sourcePoint" />
            <mxPoint x="170" y="525" as="targetPoint" />
          </mxGeometry>
        </mxCell>
        <mxCell id="rCkbryS9UeWEup9spOi4-23" value="" style="endArrow=classic;html=1;rounded=0;exitX=0.5;exitY=1;exitDx=0;exitDy=0;" edge="1" parent="1" source="rCkbryS9UeWEup9spOi4-3">
          <mxGeometry width="50" height="50" relative="1" as="geometry">
            <mxPoint x="440.00000000000006" y="180" as="sourcePoint" />
            <mxPoint x="439.79" y="220" as="targetPoint" />
          </mxGeometry>
        </mxCell>
        <mxCell id="rCkbryS9UeWEup9spOi4-24" value="" style="endArrow=classic;html=1;rounded=0;exitX=0.5;exitY=1;exitDx=0;exitDy=0;" edge="1" parent="1">
          <mxGeometry width="50" height="50" relative="1" as="geometry">
            <mxPoint x="440" y="70" as="sourcePoint" />
            <mxPoint x="440" y="110" as="targetPoint" />
          </mxGeometry>
        </mxCell>
      </root>
    </mxGraphModel>
  </diagram>
</mxfile>
